# xmcd
#
# Track frame offsets:
#	150
#	11439
#	23078
#	36643
#	49037
#	57434
#	68597
#	79070
#	89569
#	102756
#	114256
#	126463
#	136872
#	147845
#	160590
#	172036
#	182838
#	193639
#	206607
#	215705
#	227467
#	238046
#	251894
#	262664
#	273043
#	285318
#	299191
#	310764
#
# Disc length: 4347 seconds
#
# Revision: 1
# Processed by: cddbd v1.5.2PL0 Copyright (c) Steve Scherf et al.
# Submitted via: audiograbber 1.83.01
#
DISCID=9510f91c
DTITLE=Willie Headen - Blame It On The Blues
DYEAR=2006
DGENRE=Blues
TTITLE0=When I Am Gone
TTITLE1=Stop Drinking
TTITLE2=I Caught You Tippin' In
TTITLE3=Cool Cat
TTITLE4=I Wanna Know
TTITLE5=The Skinny Woman Storytrack  6
TTITLE6=Blame It On The Blues
TTITLE7=Everybody Has A Fool
TTITLE8=I Woke Up Screaming
TTITLE9=Peace Of Mind
TTITLE10=I'm A Real Fine Daddy
TTITLE11=Blame It On The Blues
TTITLE12=Sunset and Wine
TTITLE13=I Love You Bobby Sox
TTITLE14=You Can Be Replaced
TTITLE15=Fun On Sturday Night Aka Everything's All Right
TTITLE16=Back Home Again
TTITLE17=Let Me Cry
TTITLE18=I Wanna Know
TTITLE19=Peace Of Mind
TTITLE20=Turn The Hi-Fi Down
TTITLE21=Everybody Has A Fool
TTITLE22=You Can't Fool The People
TTITLE23=Down With The Blues
TTITLE24=The Blues
TTITLE25=She Loves Another
TTITLE26=The Skinny Woman Story
TTITLE27=You Can Be Replaced
EXTD=
EXTT0=
EXTT1=
EXTT2=
EXTT3=
EXTT4=
EXTT5=
EXTT6=
EXTT7=
EXTT8=
EXTT9=
EXTT10=
EXTT11=
EXTT12=
EXTT13=
EXTT14=
EXTT15=
EXTT16=
EXTT17=
EXTT18=
EXTT19=
EXTT20=
EXTT21=
EXTT22=
EXTT23=
EXTT24=
EXTT25=
EXTT26=
EXTT27=
PLAYORDER=
